<svg xmlns="http://www.w3.org/2000/svg" width="45" height="50" viewBox="0 0 45 50">
  <defs>
    <style>
      .cls-1 {
        fill-rule: evenodd;
      }
    </style>
  </defs>
  <path id="Shape_FB_copy_2" data-name="Shape FB copy 2" class="cls-1" d="M41.007,4.088a4.433,4.433,0,0,1,.488.152c0.111,0.042.22,0.088,0.326,0.138s0.235,0.123.349,0.19,0.245,0.142.359,0.225c0.05,0.036.093,0.079,0.142,0.117a4.534,4.534,0,0,1,1.212,1.461l0,0a4.58,4.58,0,0,1,.271.644h0q0,18.578,0,37.158a2.666,2.666,0,0,1-.075.419h0a4.376,4.376,0,0,1-.592,1.036c-0.017.023-.036,0.043-0.053,0.065a4.606,4.606,0,0,1-.829.818,2.8,2.8,0,0,1-.973.174c-3.486,0-6.971,0-10.457.007-0.3,0-.412-0.056-0.411-0.386q0.015-8,.008-16.007c0-.087.007-0.173,0.013-0.308h5.595c0.28-2.169.559-4.323,0.843-6.515h-6.4a0.693,0.693,0,0,1-.05-0.166c0.013-1.574-.01-3.148.055-4.719a2.328,2.328,0,0,1,2.479-2.4c1.3-.044,2.593-0.034,3.89-0.047h0.227V10.34c-0.4-.041-0.806-0.112-1.209-0.121-1.607-.042-3.223-0.185-4.819-0.07a7.306,7.306,0,0,0-7.14,6.527,37.821,37.821,0,0,0-.182,4.47c-0.021.756,0,1.514,0,2.315H18.48v6.513h5.579v16.7c-0.149.007-.283,0.019-0.417,0.019q-10.026,0-20.052,0a2.957,2.957,0,0,1-.848-0.144h0A4.487,4.487,0,0,1,1.045,44h0q0-18.292-.011-36.586h0A4.5,4.5,0,0,1,1.575,6.1C1.592,6.077,1.6,6.048,1.62,6.021a4.678,4.678,0,0,1,.3-0.4c0.065-.079.126-0.162,0.2-0.236,0.1-.107.208-0.2,0.318-0.3s0.193-.167.3-0.244,0.214-.152.326-0.221,0.258-.147.392-0.213c0.105-.051.21-0.1,0.32-0.146A4.5,4.5,0,0,1,4.28,4.1c0.093-.024.184-0.056,0.279-0.074a4.513,4.513,0,0,1,.847-0.086h34.5a4.553,4.553,0,0,1,.825.084C40.825,4.037,40.915,4.065,41.007,4.088Z"/>
</svg>
