<svg xmlns="http://www.w3.org/2000/svg" width="39" height="50" viewBox="0 0 39 50">
  <defs>
    <style>
      .cls-1 {
        fill-rule: evenodd;
      }
    </style>
  </defs>
  <path id="Shape_google_copy_2" data-name="Shape google copy 2" class="cls-1" d="M38.119,26.957a9.047,9.047,0,0,1-1.629,1.256c-1.913,1.154-3.853,2.262-5.822,3.411l-5.335-6.553,2.407-2.96c0.89-1.1,1.787-2.187,2.663-3.293a0.427,0.427,0,0,1,.659-0.13c1.982,1.166,3.984,2.3,5.949,3.489a5.188,5.188,0,0,1,1.352,1.218A2.556,2.556,0,0,1,38.119,26.957ZM9.553,6.9L9.6,6.834l18.7,10.851-4.985,6.131Zm9.1,13.7c1.139,1.4,2.278,2.8,3.43,4.193a0.347,0.347,0,0,1,.006.547q-4.4,5.381-8.773,10.778c-2.437,3-4.889,5.982-7.3,9A3.617,3.617,0,0,1,2.62,46.4,2.175,2.175,0,0,1,.871,44.8,7.322,7.322,0,0,1,.527,42.02q0.01-6.422,0-12.845,0-2.078,0-4.157,0-5.006,0-10.011c0-2.739-.013-5.479.033-8.217a4.827,4.827,0,0,1,.4-1.675A2.2,2.2,0,0,1,3.725,3.76a5.276,5.276,0,0,1,1.685.685A7.229,7.229,0,0,1,6.651,5.833q2.817,3.447,5.622,6.9Q15.463,16.667,18.649,20.6Zm9.627,11.832L9.6,43.314l-0.051-.066L23.31,26.323Z"/>
</svg>
