<svg xmlns="http://www.w3.org/2000/svg" width="57" height="50" viewBox="0 0 57 50">
  <defs>
    <style>
      .cls-1 {
        fill-rule: evenodd;
      }
    </style>
  </defs>
  <path id="Shape_youtube_icon_copy_2" data-name="Shape youtube icon copy 2" class="cls-1" d="M44.906,5.935a28.281,28.281,0,0,1,6.038.993,6.618,6.618,0,0,1,3.842,3.852,20.636,20.636,0,0,1,1.19,5.978,103.719,103.719,0,0,1,.231,12.693c-0.131,2.5-.317,5.008-0.588,7.5A10.046,10.046,0,0,1,54.2,41.118a6.618,6.618,0,0,1-5.443,3.212c-2.288.15-5.351,0.6-5.351,0.6h-30s-2.454-.382-5.1-0.587a8.678,8.678,0,0,1-3.667-1.136,6.963,6.963,0,0,1-3.123-4.472,25.921,25.921,0,0,1-.883-6.494c-0.1-3.725-.154-7.453-0.117-11.179a36.226,36.226,0,0,1,.77-8.205c0.477-1.966,1.148-3.845,2.9-5.1a7.977,7.977,0,0,1,4.029-1.4c1.713-.153,5.194-0.427,5.194-0.427h31.5ZM22.534,33.5l16.351-8.959L22.534,15.577V33.5Z"/>
</svg>
