<svg id="Twitter_Black" data-name="Twitter Black" xmlns="http://www.w3.org/2000/svg" viewBox="0 0 31.22 25.37"><title>btn-link-Twitter-000000</title><path d="M31.89,4.6a12.94,12.94,0,0,1-3.68,1A6.45,6.45,0,0,0,31,2.07,13,13,0,0,1,27,3.62,6.41,6.41,0,0,0,16.05,9.46,18.2,18.2,0,0,1,2.85,2.77a6.41,6.41,0,0,0,2,8.55,6.32,6.32,0,0,1-2.9-.8,6.41,6.41,0,0,0,5.13,6.36A6.5,6.5,0,0,1,4.17,17a6.41,6.41,0,0,0,6,4.44A12.83,12.83,0,0,1,.67,24.09,18.12,18.12,0,0,0,10.49,27c11.89,0,18.61-10,18.2-19A13.29,13.29,0,0,0,31.89,4.6Z" transform="translate(-0.67 -1.6)"/></svg>