<svg xmlns="http://www.w3.org/2000/svg" width="28.75" height="28.5" viewBox="0 0 28.75 28.5">
  <defs>
    <style>
      .cls-1 {
        fill: #fff;
        fill-rule: evenodd;
      }
    </style>
  </defs>
  <path id="Shape_FB" data-name="Shape FB" class="cls-1" d="M828.734,760.1a3.055,3.055,0,0,1,.325.1c0.074,0.029.146,0.059,0.217,0.093s0.157,0.082.233,0.127,0.163,0.094.239,0.149c0.033,0.024.062,0.053,0.094,0.078a3.02,3.02,0,0,1,.808.974l0,0a2.9,2.9,0,0,1,.181.429h0q0,12.386,0,24.772a1.807,1.807,0,0,1-.05.279h0a2.949,2.949,0,0,1-.395.691c-0.011.015-.024,0.028-0.035,0.043a3.068,3.068,0,0,1-.553.545,1.867,1.867,0,0,1-.648.116c-2.324,0-4.648,0-6.972,0-0.2,0-.274-0.038-0.274-0.258q0.011-5.336,0-10.67c0-.059.005-0.116,0.009-0.206h3.73l0.562-4.343h-4.265a0.5,0.5,0,0,1-.033-0.11c0.009-1.049-.006-2.1.037-3.147a1.55,1.55,0,0,1,1.652-1.6c0.864-.03,1.729-0.024,2.594-0.032h0.151v-3.873c-0.268-.028-0.537-0.075-0.806-0.081-1.071-.027-2.149-0.123-3.213-0.046a4.871,4.871,0,0,0-4.76,4.351,25.236,25.236,0,0,0-.121,2.98c-0.014.5,0,1.01,0,1.543h-3.73v4.342h3.72v11.131c-0.1,0-.189.013-0.278,0.013H803.788a1.976,1.976,0,0,1-.565-0.1h0a2.986,2.986,0,0,1-1.131-1.7h0q0-12.193-.007-24.389h0a3.02,3.02,0,0,1,.361-0.872c0.011-.018.018-0.037,0.03-0.055a2.915,2.915,0,0,1,.2-0.269c0.043-.053.083-0.108,0.13-0.158a2.877,2.877,0,0,1,.212-0.2c0.064-.057.128-0.112,0.2-0.163s0.142-.1.217-0.147a2.86,2.86,0,0,1,.261-0.142c0.071-.034.141-0.069,0.214-0.1a2.961,2.961,0,0,1,.339-0.105c0.062-.017.122-0.038,0.186-0.05A3,3,0,0,1,805,760h23a3.026,3.026,0,0,1,.55.056C828.613,760.067,828.672,760.085,828.734,760.1Z" transform="translate(-802.094 -760)"/>
</svg>
