<svg xmlns="http://www.w3.org/2000/svg" width="25.625" height="28.5" viewBox="0 0 25.625 28.5">
  <defs>
    <style>
      .cls-1 {
        fill: #fff;
        fill-rule: evenodd;
      }
    </style>
  </defs>
  <path id="Shape_google_" data-name="Shape google " class="cls-1" d="M851.749,774.721q0-3.338,0-6.674c0-1.826-.008-3.652.022-5.478a3.216,3.216,0,0,1,.264-1.117,1.469,1.469,0,0,1,1.844-.9,3.518,3.518,0,0,1,1.123.457,4.833,4.833,0,0,1,.827.925q1.878,2.3,3.748,4.6,2.129,2.619,4.252,5.241c0.759,0.935,1.518,1.869,2.286,2.8a0.231,0.231,0,0,1,0,.365q-2.931,3.587-5.849,7.186c-1.625,2-3.259,3.987-4.87,6a2.409,2.409,0,0,1-2.257.86,1.452,1.452,0,0,1-1.167-1.065,4.89,4.89,0,0,1-.229-1.856q0.008-4.283,0-8.564Q851.748,776.106,851.749,774.721Zm20.092,4.4-3.557-4.368c0.539-.664,1.072-1.319,1.605-1.974,0.593-.73,1.191-1.458,1.775-2.2a0.285,0.285,0,0,1,.44-0.087c1.32,0.778,2.656,1.532,3.966,2.326a3.456,3.456,0,0,1,.9.813,1.7,1.7,0,0,1-.163,2.374,5.92,5.92,0,0,1-1.086.837C874.447,777.619,873.153,778.358,871.841,779.124Zm-1.582-9.292-3.324,4.087-9.171-11.278c0.01-.015.02-0.029,0.029-0.044Zm-12.5,17.041,9.176-11.283,3.31,4.073L857.8,786.918Z" transform="translate(-851.75 -760.469)"/>
</svg>
