<svg xmlns="http://www.w3.org/2000/svg" width="37.188" height="26" viewBox="0 0 37.188 26">
  <defs>
    <style>
      .cls-1 {
        fill: #fff;
        fill-rule: evenodd;
      }
    </style>
  </defs>
  <path id="Shape_youtube_icon" data-name="Shape youtube icon" class="cls-1" d="M775,762a18.882,18.882,0,0,1,4.025.662,4.413,4.413,0,0,1,2.561,2.568,13.743,13.743,0,0,1,.793,3.985,68.883,68.883,0,0,1,.154,8.463c-0.087,1.668-.211,3.338-0.392,5a6.675,6.675,0,0,1-.946,2.778,4.408,4.408,0,0,1-3.628,2.142c-1.526.1-3.567,0.4-3.567,0.4H754s-1.636-.254-3.4-0.391a5.792,5.792,0,0,1-2.445-.758,4.643,4.643,0,0,1-2.082-2.982,17.283,17.283,0,0,1-.588-4.329c-0.065-2.483-.1-4.968-0.078-7.452a24.184,24.184,0,0,1,.513-5.471,5.416,5.416,0,0,1,1.933-3.4,5.311,5.311,0,0,1,2.685-.934C751.68,762.181,754,762,754,762h21Zm-14.915,18.376,10.9-5.973-10.9-5.974v11.947Z" transform="translate(-745.406 -762)"/>
</svg>
