<svg xmlns="http://www.w3.org/2000/svg" width="24.969" height="30.624" viewBox="0 0 24.969 30.624">
  <defs>
    <style>
      .cls-1 {
        fill: #fff;
        fill-rule: evenodd;
      }
    </style>
  </defs>
  <path id="Shape_apple" data-name="Shape apple" class="cls-1" d="M921.189,781.186c-0.052.175-.1,0.359-0.161,0.538a17.607,17.607,0,0,1-3.429,5.762c-1.6,1.832-3.085,2.229-5.328,1.269a7.218,7.218,0,0,0-5.96,0c-2.3.972-3.571,0.679-5.208-1.178a18.217,18.217,0,0,1-4.877-13.1,8.421,8.421,0,0,1,4.006-7.321,6.34,6.34,0,0,1,5.6-.669c0.723,0.249,1.446.5,2.16,0.773a2.52,2.52,0,0,0,1.784,0,29.468,29.468,0,0,1,3.819-1.147,6.923,6.923,0,0,1,6.76,2.959A6.86,6.86,0,0,0,921.189,781.186Zm-12.408-15.515c-0.846-2.839,2.724-7,6.008-6.972C915.238,762.265,911.964,766.031,908.781,765.671Z" transform="translate(-896.219 -758.688)"/>
</svg>
